<?xml version="1.0" encoding="utf-8"?>
<!-- Generator: Adobe Illustrator 27.8.1, SVG Export Plug-In . SVG Version: 6.00 Build 0)  -->
<svg version="1.1" id="Layer_1" xmlns="http://www.w3.org/2000/svg" xmlns:xlink="http://www.w3.org/1999/xlink" x="0px" y="0px" viewBox="0 0 868.9 316.3" style="enable-background:new 0 0 868.9 316.3;" xml:space="preserve">
  <style type="text/css">
	.st0{fill:#2B80FF;}
	.st1{fill:#001026;}
	.st2{fill:#FFFFFF;}
</style>
  <g>
    <g>
      <g>
        <path class="st1" d="M202,4.1h41.4v210.2H202V4.1z" />
      </g>
      <g>
        <path class="st1" d="M266,108.4C266,40.5,316.2,0,369.9,0c50.1,0,88.9,29.4,95.5,73.9h-41.1C418,51,397.9,36,369.9,36
				c-33.9,0-60.7,28.2-60.7,72.4c0,44.4,27,74.2,60.7,74.2c27.6,0,47.1-14.4,54.7-38.1h41.1c-7.8,45.3-45.9,73.9-95.8,73.9
				C314.7,218.3,266,177.2,266,108.4z" />
      </g>
      <g>
        <path class="st1" d="M490.2,4.1h92.2c48,0,70,23.4,70,55.3c0,23.4-13.2,39.3-30.9,44.7v0.6c20.7,5.7,35.7,23.7,35.7,50.4
				c0,36.9-27.9,59.2-76.9,59.2h-90.1V4.1z M530.5,36.2v54.4h47.7c21.9,0,33.3-9.9,33.3-27c0-16.8-11.7-27.3-33.3-27.3H530.5z
				 M530.5,121.8v60.4h46.2c25.8,0,39.3-10.8,39.3-29.7c0-19.5-13.5-30.6-39-30.6H530.5z" />
      </g>
      <g>
        <path class="st1" d="M807.3,165.3H717l-18,48.9h-41.7L739.5,4.1h47.4l82,210.2h-43.5L807.3,165.3z M794.7,131.4l-32.4-87.7
				l-32.7,87.7H794.7z" />
      </g>
    </g>
    <g>
      <path class="st1" d="M6.7,284.2c0-13.1,9.4-21.3,20.5-21.3c11.2,0,20.6,8.2,20.6,21.3c0,13.1-9.3,21.6-20.6,21.6
			C15.9,305.8,6.7,297.3,6.7,284.2z M42.2,284.2c0-10-6.6-16.6-14.9-16.6s-14.9,6.6-14.9,16.6c0,10,6.6,16.9,14.9,16.9
			C35.7,301.1,42.2,294.3,42.2,284.2z" />
      <path class="st1" d="M58.6,305.1h-5v-30.6h4.9v4.5c1.8-3.1,5.2-5.3,9.7-5.3c6.6,0,11,4,11,12.1v19.2h-5v-18.6c0-5.4-3-8.4-7.5-8.4
			c-4.3,0-8.2,3.2-8.2,9.7V305.1z" />
      <path class="st1" d="M99.4,305.7c-8.4,0-15.2-6.3-15.2-16.2c0-9.9,7.1-15.8,14.8-15.8c7.7,0,14.6,5.4,14.6,16.1v1.2H89.3
			c0.4,6.2,4.7,10.4,10.2,10.4c4,0,7.3-1.6,8.9-5.1h5C111.6,302.6,105.6,305.7,99.4,305.7z M89.3,287.1h19.2
			c-0.4-5.6-4.4-9.1-9.6-9.1C94,278,89.8,281.4,89.3,287.1z" />
      <path class="st1" d="M140,267.5v37.6h-5.1v-41.3h8.7l13.2,35.5l13.2-35.5h8.5v41.3h-5.1v-37.6l-14,37.6H154L140,267.5z" />
      <path class="st1" d="M186.2,262.6h5.1v6h-5.1V262.6z M186.3,274.5h5v30.6h-5V274.5z" />
      <path class="st1" d="M196.2,295.6h4.8c0.6,4,4.1,6.1,8.4,6.1c3.7,0,7.2-1.6,7.2-4.8c0-2.8-2.6-4.1-7.1-5l-3.2-0.6
			c-5.7-1.1-9.2-3.7-9.2-8.3c0-5.7,5.2-9.2,11.5-9.2c6.2,0,11.3,3.4,12.1,9.1h-4.7c-0.8-3.1-3.6-5-7.6-5c-3.7,0-6.6,1.9-6.6,4.7
			c0,2.5,2.1,3.6,6,4.4l3.2,0.7c6.3,1.2,10.4,3.7,10.4,8.8c0,6.1-5.8,9.4-12,9.4C202.6,305.8,196.9,302.3,196.2,295.6z" />
      <path class="st1" d="M224.5,295.6h4.8c0.6,4,4.1,6.1,8.4,6.1c3.7,0,7.2-1.6,7.2-4.8c0-2.8-2.6-4.1-7.1-5l-3.2-0.6
			c-5.7-1.1-9.2-3.7-9.2-8.3c0-5.7,5.2-9.2,11.5-9.2c6.2,0,11.3,3.4,12.1,9.1h-4.7c-0.8-3.1-3.6-5-7.6-5c-3.7,0-6.6,1.9-6.6,4.7
			c0,2.5,2.1,3.6,6,4.4l3.2,0.7c6.3,1.2,10.4,3.7,10.4,8.8c0,6.1-5.8,9.4-12,9.4C230.9,305.8,225.2,302.3,224.5,295.6z" />
      <path class="st1" d="M254.8,262.6h5.1v6h-5.1V262.6z M254.9,274.5h5v30.6h-5V274.5z" />
      <path class="st1" d="M265,289.5c0-9.5,6.9-15.8,15.4-15.8c8.6,0,15.4,6.3,15.4,15.8c0,9.7-6.9,16.2-15.4,16.2
			C271.9,305.7,265,299.4,265,289.5z M290.7,289.5c0-6.7-4.4-11.4-10.3-11.4c-6,0-10.3,4.7-10.3,11.4c0,7,4.4,11.8,10.3,11.8
			S290.7,296.6,290.7,289.5z" />
      <path class="st1" d="M306.1,305.1h-5v-30.6h4.9v4.5c1.8-3.1,5.2-5.3,9.7-5.3c6.6,0,11,4,11,12.1v19.2h-5v-18.6
			c0-5.4-3-8.4-7.5-8.4c-4.3,0-8.2,3.2-8.2,9.7V305.1z" />
      <path class="st1" d="M333.6,298.3h5.8v6.7h-5.8V298.3z" />
      <path class="st1" d="M357.5,284.2c0-13.3,9.9-21.3,20.4-21.3c9.9,0,17.5,5.8,18.8,14.5h-8.1c-1.2-4.5-5.2-7.4-10.7-7.4
			c-6.7,0-11.9,5.6-11.9,14.2c0,8.7,5.3,14.6,11.9,14.6c5.4,0,9.3-2.8,10.7-7.5h8.1c-1.5,8.9-9,14.5-18.8,14.5
			C367,305.8,357.5,297.7,357.5,284.2z" />
      <path class="st1" d="M399.6,289.6c0-9.6,7.3-15.8,16.1-15.8c8.9,0,16.1,6.1,16.1,15.8c0,9.8-7.2,16.1-16.1,16.1
			C406.7,305.7,399.6,299.5,399.6,289.6z M424,289.6c0-5.6-3.4-9.5-8.3-9.5c-5,0-8.3,3.8-8.3,9.5c0,5.8,3.4,9.7,8.3,9.7
			C420.6,299.4,424,295.5,424,289.6z" />
      <path class="st1" d="M443.9,305.1h-7.6v-30.6h7.4v3.6c1.8-2.8,5-4.3,9-4.3c3.6,0,7.2,1.5,9.2,5.1c2.1-3.3,5.7-5.1,10-5.1
			c6,0,11.2,3.2,11.2,11.9v19.4h-7.6v-18.2c0-4.4-2.5-6.6-5.7-6.6c-3.2,0-6.3,2.7-6.3,7.8v17h-7.6v-18.2c0-4.4-2.5-6.6-5.7-6.6
			c-3.2,0-6.3,2.6-6.3,7.8V305.1z" />
      <path class="st1" d="M496.9,305.1h-7.6v-30.6h7.4v3.6c1.8-2.8,5-4.3,9-4.3c3.6,0,7.2,1.5,9.2,5.1c2.1-3.3,5.7-5.1,10-5.1
			c6,0,11.2,3.2,11.2,11.9v19.4h-7.6v-18.2c0-4.4-2.5-6.6-5.7-6.6s-6.3,2.7-6.3,7.8v17h-7.6v-18.2c0-4.4-2.5-6.6-5.7-6.6
			c-3.2,0-6.3,2.6-6.3,7.8V305.1z" />
      <path class="st1" d="M561.8,301.5c-1.9,2.8-5.1,4.3-8.9,4.3c-6.5,0-11.1-4.1-11.1-12v-19.2h7.6v18c0,4.4,2.4,6.8,6,6.8
			c3.2,0,6.3-2.5,6.3-7.9v-16.9h7.6v30.6h-7.4V301.5z" />
      <path class="st1" d="M583.2,305.1h-7.6v-30.6h7.4v3.7c1.9-2.8,5.3-4.4,9.2-4.4c6.7,0,11.1,4.2,11.1,12.2v19.1h-7.6v-18
			c0-4.2-2.2-6.9-6.1-6.9c-3.5,0-6.5,2.7-6.5,8.2V305.1z" />
      <path class="st1" d="M609.3,262.6h7.7v7.1h-7.7V262.6z M609.4,274.5h7.6v30.6h-7.6V274.5z" />
      <path class="st1" d="M625.1,296.9v-16.6h-5.1v-5.8h5.1V267h7.5v7.4h7.1v5.8h-7.1v15.1c0,3.2,1,3.8,3.4,3.8h3.7v5.8
			c-2.2,0.1-3.5,0.1-6.1,0.1C628.4,305.1,625.1,303.6,625.1,296.9z" />
      <path class="st1" d="M655.8,316.3H648l5.6-13.4l-12.2-28.4h8l7.9,19.9l7.3-19.9h7.7L655.8,316.3z" />
      <path class="st1" d="M690,263.7h18.1c9.5,0,13.8,4.6,13.8,10.9c0,4.6-2.6,7.7-6.1,8.8v0.1c4.1,1.1,7,4.7,7,9.9
			c0,7.3-5.5,11.6-15.1,11.6H690V263.7z M697.9,270.1v10.7h9.4c4.3,0,6.6-1.9,6.6-5.3c0-3.3-2.3-5.4-6.6-5.4H697.9z M697.9,286.9
			v11.9h9.1c5.1,0,7.7-2.1,7.7-5.8c0-3.8-2.7-6-7.7-6H697.9z" />
      <path class="st1" d="M747.4,301.3c-2,2.8-5.2,4.4-9.7,4.4c-5.7,0-11.2-3.2-11.2-9.4c0-6.6,5.3-8.7,13.4-10l7-1.1v-0.4
			c0-3.8-2.1-5.3-5.7-5.3c-3.6,0-5.8,1.7-6.4,4.8h-7.2c0.9-6.5,6.6-10.5,13.9-10.5c7.7,0,12.9,3,12.9,11.5l-0.1,13.5
			c0,1,0.1,2.6,0.3,6.3h-7L747.4,301.3z M739.4,300c4.1,0,7.5-2.5,7.5-7.4v-2.1c-9.2,1.2-13,2.1-13,5.4
			C733.9,298.6,736.2,300,739.4,300z" />
      <path class="st1" d="M768,305.1h-7.6v-30.6h7.4v3.7c1.9-2.8,5.3-4.4,9.2-4.4c6.7,0,11.1,4.2,11.1,12.2v19.1h-7.6v-18
			c0-4.2-2.2-6.9-6.1-6.9c-3.5,0-6.5,2.7-6.5,8.2V305.1z" />
      <path class="st1" d="M806.7,291.1l-5,5.1v8.9h-7.5v-42.5h7.5v24.5l11.9-12.6h9.5l-11,11.2l11.3,19.4h-8.6L806.7,291.1z" />
      <path class="st1" d="M823.5,295.4h7.1c0.5,3.2,3.3,4.7,6.9,4.7c2.9,0,5.7-1.1,5.7-3.5c0-2.2-2.1-3.1-6.1-3.8l-3.1-0.5
			c-6.1-1.1-9.9-3.9-9.9-8.7c0-6.1,5.6-9.8,12.5-9.8c6.7,0,12.3,3.4,13.1,9.6h-7c-0.7-2.6-3-3.9-6.2-3.9c-3,0-5.2,1.4-5.2,3.4
			c0,1.9,1.7,2.7,5.2,3.3l3.1,0.5c6.7,1.2,10.9,3.8,10.9,9.2c0,6.5-6.2,10-13.1,10C830.2,305.8,824.3,302.5,823.5,295.4z" />
      <path class="st1" d="M855.3,296.5h8.5v8.6h-8.5V296.5z" />
    </g>
    <g>
      <g>
        <g>
          <g>
            <g>
              <path class="st0" d="M4.8,203.8H0v-1.1h10.9v1.1H6.1v12.1H4.8V203.8z" />
            </g>
            <g>
              <path class="st0" d="M14.2,203.6v12.3H13v-13.2h2.2l4.7,11.8l4.7-11.8h2.1v13.2h-1.3v-12.3l-4.9,12.3h-1.4L14.2,203.6z" />
            </g>
          </g>
          <g>
            <path class="st0" d="M34,135.2c0-40,32.4-72.4,72.4-72.4h47.3V2.4h-47.3C47.6,2.4,0,50,0,108.7c0,58.7,47.6,107.1,106.3,107.1
						h0h47.3v-13.4h-47.3c-10.3,0-18.7-9.2-18.7-19.5c0-10.3,8.4-18.7,18.7-18.7h47.3v-15.6h-47.3c-15.1,0-27.4,12.3-27.4,27.4
						c0,15.1,12.1,28.1,27.1,28.2c-21.4-0.1-38.7-19-38.7-40.5c0-21.5,17.5-39.8,39-39.8h47.3V91.4h-47.3
						c-31.7,0-57.4,26.5-57.4,58.1c0,31.7,24,57.1,54.2,58.8C64.7,206.7,34,174.1,34,135.2L34,135.2z" />
          </g>
        </g>
      </g>
    </g>
  </g>
</svg>